<svg width="16" height="16" viewBox="0 0 16 16" fill="none" xmlns="http://www.w3.org/2000/svg">
<g clip-path="url(#clip0_81_1456)">
<path d="M12.4444 13.3334H2.66666V3.55564H8.54222L9.4311 2.66675H2.66666C2.43091 2.66675 2.20482 2.7604 2.03812 2.9271C1.87142 3.0938 1.77777 3.31989 1.77777 3.55564V13.3334C1.77777 13.5692 1.87142 13.7953 2.03812 13.962C2.20482 14.1287 2.43091 14.2223 2.66666 14.2223H12.4444C12.6802 14.2223 12.9063 14.1287 13.073 13.962C13.2397 13.7953 13.3333 13.5692 13.3333 13.3334V6.66675L12.4444 7.55564V13.3334Z" fill="#505050"/>
<path d="M14.9022 2.5955L13.4044 1.09773C13.338 1.03107 13.259 0.97819 13.1721 0.942107C13.0851 0.906025 12.9919 0.887451 12.8978 0.887451C12.8036 0.887451 12.7104 0.906025 12.6235 0.942107C12.5365 0.97819 12.4576 1.03107 12.3911 1.09773L6.29777 7.22661L5.80444 9.36439C5.78342 9.46802 5.78563 9.57502 5.81091 9.67769C5.83619 9.78036 5.8839 9.87615 5.95063 9.95817C6.01735 10.0402 6.10143 10.1064 6.1968 10.1521C6.29218 10.1977 6.39648 10.2217 6.50222 10.2222C6.55687 10.2282 6.61201 10.2282 6.66666 10.2222L8.82222 9.74662L14.9022 3.60884C14.9689 3.54237 15.0218 3.4634 15.0578 3.37645C15.0939 3.28951 15.1125 3.1963 15.1125 3.10217C15.1125 3.00804 15.0939 2.91483 15.0578 2.82789C15.0218 2.74094 14.9689 2.66197 14.9022 2.5955ZM8.35999 8.92439L6.73333 9.28439L7.11111 7.67106L11.6978 3.05328L12.9511 4.30661L8.35999 8.92439ZM13.4533 3.80439L12.2 2.55106L12.8889 1.84884L14.1511 3.11106L13.4533 3.80439Z" fill="#505050"/>
</g>
<defs>
<clipPath id="clip0_81_1456">
<rect width="16" height="16" fill="white"/>
</clipPath>
</defs>
</svg>
