<svg width="20" height="20" viewBox="0 0 20 20" fill="none" xmlns="http://www.w3.org/2000/svg">
<path d="M2.54103 7.75894C2.5144 7.67742 2.5 7.59037 2.5 7.49996C2.5 7.03972 2.8731 6.66663 3.33333 6.66663C3.71642 6.66663 4.03913 6.92512 4.13656 7.27719C5.87473 13.0988 14.1213 13.1001 15.8624 7.28108C15.9585 6.92702 16.2822 6.66663 16.6667 6.66663C17.1269 6.66663 17.5 7.03972 17.5 7.49996C17.5 7.58897 17.486 7.67471 17.4602 7.75513C17.1262 8.87345 16.6035 9.82295 15.9489 10.6036L17.0119 11.6666C17.3373 11.992 17.3373 12.5197 17.0119 12.8451C16.6865 13.1706 16.1588 13.1706 15.8334 12.8451L14.7406 11.7523C14.1454 12.2021 13.4926 12.5545 12.8071 12.8096L13.1053 13.9225C13.2245 14.3671 12.9606 14.824 12.5161 14.9432C12.0715 15.0623 11.6146 14.7985 11.4955 14.3539L11.1926 13.2235C10.403 13.3403 9.59701 13.3403 8.80744 13.2235L8.50454 14.3539C8.38542 14.7985 7.92847 15.0623 7.48392 14.9432C7.03936 14.824 6.77554 14.3671 6.89466 13.9225L7.19287 12.8096C6.50742 12.5545 5.85467 12.2021 5.25955 11.7524L4.16681 12.8451C3.84137 13.1706 3.31373 13.1706 2.9883 12.8451C2.66286 12.5197 2.66286 11.992 2.9883 11.6666L4.05123 10.6037C3.39741 9.82388 2.87507 8.87563 2.54103 7.75894Z" fill="#505050"/>
</svg>
