<svg width="14" height="13" viewBox="0 0 14 13" fill="none" xmlns="http://www.w3.org/2000/svg">
<path d="M8.85715 8.28564C9.19814 8.28564 9.52517 8.4211 9.76628 8.66222C10.0074 8.90334 10.1429 9.23037 10.1429 9.57136V10.4296L10.1383 10.4914C9.96115 11.7068 8.86972 12.2908 7.03829 12.2908C5.21372 12.2908 4.10457 11.7136 3.86515 10.5125L3.85715 10.4285V9.57136C3.85715 9.23037 3.99261 8.90334 4.23372 8.66222C4.47484 8.4211 4.80187 8.28564 5.14286 8.28564H8.85715ZM8.85715 9.14279H5.14286C5.0292 9.14279 4.92019 9.18794 4.83982 9.26831C4.75944 9.34869 4.71429 9.45769 4.71429 9.57136V10.3828C4.87429 11.0685 5.6 11.4336 7.03829 11.4336C8.476 11.4336 9.16972 11.0731 9.28572 10.3959V9.57136C9.28572 9.45769 9.24057 9.34869 9.16019 9.26831C9.07982 9.18794 8.97081 9.14279 8.85715 9.14279ZM9.42515 4.8565L12.5714 4.85707C12.9124 4.85707 13.2395 4.99253 13.4806 5.23365C13.7217 5.47477 13.8571 5.80179 13.8571 6.14279V7.00107L13.8526 7.06279C13.6754 8.27822 12.584 8.86222 10.7526 8.86222L10.5726 8.8605C10.4038 8.45374 10.0963 8.12004 9.70457 7.91879C9.99886 7.97593 10.3474 8.00507 10.7526 8.00507C12.1903 8.00507 12.884 7.6445 13 6.96736V6.14279C13 6.02912 12.9549 5.92011 12.8745 5.83974C12.7941 5.75937 12.6851 5.71422 12.5714 5.71422H9.57143C9.57143 5.41364 9.52 5.1245 9.42515 4.8565ZM1.42857 4.85707L4.57486 4.8565C4.49417 5.08478 4.44627 5.32334 4.43257 5.56507L4.42858 5.71422H1.42857C1.31491 5.71422 1.2059 5.75937 1.12553 5.83974C1.04516 5.92011 1 6.02912 1 6.14279V6.95422C1.16 7.63993 1.88572 8.00507 3.324 8.00507C3.67943 8.00507 3.98915 7.98279 4.25658 7.93936C3.88255 8.1426 3.5895 8.46792 3.42629 8.86107L3.32343 8.86222C1.49943 8.86222 0.390289 8.28507 0.15086 7.08393L0.14286 6.99993V6.14279C0.14286 5.80179 0.278319 5.47477 0.519437 5.23365C0.760556 4.99253 1.08758 4.85707 1.42857 4.85707ZM7 3.71422C7.53044 3.71422 8.03914 3.92493 8.41422 4.3C8.78929 4.67508 9 5.18378 9 5.71422C9 6.24465 8.78929 6.75336 8.41422 7.12843C8.03914 7.5035 7.53044 7.71422 7 7.71422C6.46957 7.71422 5.96086 7.5035 5.58579 7.12843C5.21072 6.75336 5 6.24465 5 5.71422C5 5.18378 5.21072 4.67508 5.58579 4.3C5.96086 3.92493 6.46957 3.71422 7 3.71422ZM7 4.57136C6.6969 4.57136 6.40621 4.69177 6.19188 4.90609C5.97755 5.12042 5.85715 5.41111 5.85715 5.71422C5.85715 6.01732 5.97755 6.30801 6.19188 6.52234C6.40621 6.73666 6.6969 6.85707 7 6.85707C7.30311 6.85707 7.5938 6.73666 7.80813 6.52234C8.02245 6.30801 8.14286 6.01732 8.14286 5.71422C8.14286 5.41111 8.02245 5.12042 7.80813 4.90609C7.5938 4.69177 7.30311 4.57136 7 4.57136ZM10.7143 0.285645C11.2447 0.285645 11.7534 0.496358 12.1285 0.871431C12.5036 1.2465 12.7143 1.75521 12.7143 2.28564C12.7143 2.81608 12.5036 3.32478 12.1285 3.69986C11.7534 4.07493 11.2447 4.28564 10.7143 4.28564C10.1839 4.28564 9.67515 4.07493 9.30008 3.69986C8.925 3.32478 8.71429 2.81608 8.71429 2.28564C8.71429 1.75521 8.925 1.2465 9.30008 0.871431C9.67515 0.496358 10.1839 0.285645 10.7143 0.285645ZM3.28572 0.285645C3.81615 0.285645 4.32486 0.496358 4.69993 0.871431C5.075 1.2465 5.28572 1.75521 5.28572 2.28564C5.28572 2.81608 5.075 3.32478 4.69993 3.69986C4.32486 4.07493 3.81615 4.28564 3.28572 4.28564C2.75528 4.28564 2.24658 4.07493 1.8715 3.69986C1.49643 3.32478 1.28572 2.81608 1.28572 2.28564C1.28572 1.75521 1.49643 1.2465 1.8715 0.871431C2.24658 0.496358 2.75528 0.285645 3.28572 0.285645ZM10.7143 1.14279C10.4112 1.14279 10.1205 1.2632 9.90617 1.47752C9.69184 1.69185 9.57143 1.98254 9.57143 2.28564C9.57143 2.58875 9.69184 2.87944 9.90617 3.09377C10.1205 3.30809 10.4112 3.4285 10.7143 3.4285C11.0174 3.4285 11.3081 3.30809 11.5224 3.09377C11.7367 2.87944 11.8571 2.58875 11.8571 2.28564C11.8571 1.98254 11.7367 1.69185 11.5224 1.47752C11.3081 1.2632 11.0174 1.14279 10.7143 1.14279ZM3.28572 1.14279C2.98261 1.14279 2.69192 1.2632 2.4776 1.47752C2.26327 1.69185 2.14286 1.98254 2.14286 2.28564C2.14286 2.58875 2.26327 2.87944 2.4776 3.09377C2.69192 3.30809 2.98261 3.4285 3.28572 3.4285C3.58882 3.4285 3.87951 3.30809 4.09384 3.09377C4.30817 2.87944 4.42858 2.58875 4.42858 2.28564C4.42858 1.98254 4.30817 1.69185 4.09384 1.47752C3.87951 1.2632 3.58882 1.14279 3.28572 1.14279Z" fill="#505050"/>
</svg>
