<svg width="16" height="16" viewBox="0 0 16 16" fill="none" xmlns="http://www.w3.org/2000/svg">
<rect width="16" height="16" rx="8" fill="#FDFDFD"/>
<path fill-rule="evenodd" clip-rule="evenodd" d="M8 8.76818L11.0727 11.8409C11.2849 12.053 11.6288 12.053 11.8409 11.8409C12.053 11.6288 12.053 11.2849 11.8409 11.0727L8.76818 8L11.8409 4.92728C12.053 4.71516 12.053 4.37123 11.8409 4.1591C11.6288 3.94697 11.2849 3.94697 11.0727 4.1591L8 7.23182L4.92728 4.1591C4.71515 3.94697 4.37122 3.94697 4.1591 4.1591C3.94697 4.37122 3.94697 4.71515 4.1591 4.92728L7.23182 8L4.1591 11.0727C3.94697 11.2849 3.94697 11.6288 4.1591 11.8409C4.37122 12.053 4.71515 12.053 4.92728 11.8409L8 8.76818Z" fill="#505050"/>
</svg>
